{
  "title": "Shameless US S05 Season 5 720p 5.1Ch BluRay ReEnc-DeeJayAhmed",
  "uid": 13481432,
  "size": 5503188720,
  "categoryP": "video",
  "categoryS": "hd___tv_shows",
  "magnet": "?xt=urn:btih:0fd638aafe5a70e80522ada7f423ae9f8b76fbbc&amp;dn=Shameless+US+S05+Season+5+720p+5.1Ch+BluRay+ReEnc-DeeJayAhmed&amp;tr=udp%3A%2F%2Ftracker.leechers-paradise.org%3A6969&amp;tr=udp%3A%2F%2Fzer0day.ch%3A1337&amp;tr=udp%3A%2F%2Fopen.demonii.com%3A1337&amp;tr=udp%3A%2F%2Ftracker.coppersurfer.tk%3A6969&amp;tr=udp%3A%2F%2Fexodus.desync.com%3A6969",
  "seeders": 159,
  "leechers": 45,
  "uploader": "DeeJayPirate",
  "files": 26,
  "time": 1455060316,
  "description": "DeeJayAhmed  \nhttps://www.DeeJayAhmed.com\r\r\nKeep Seeding!!=)) \r\nDo Comment On The A/V Quality Considering The Size Of The File..!\r\nHelp Me By Donating Bitcoins : 14i1UCWye2SCjoAHR5u6LDswWgAy55dxAv\r\n\r\nVideo \r\nID : 1 \r\nFormat : AVC \r\nFormat/Info : Advanced Video Codec \r\nFormat profile :    \r\nFormat settings, CABAC : Yes \r\nFormat settings, ReFrames : 8 frames \r\nCodec ID : V_MPEG4/ISO/AVC \r\nDuration : 54mn 29s \r\nBit rate : 948 Kbps \r\nWidth : 1 280 pixels \r\nHeight : 720 pixels \r\nDisplay aspect ratio : 16:9 \r\nFrame rate mode : Constant \r\nFrame rate : 23.976 (24000/1001) fps \r\nColor space : YUV \r\nChroma subsampling : 4:2:0 \r\nBit depth : 8 bits \r\nScan type : Progressive \r\nBits/(Pixel*Frame) : 0.043 \r\nStream size : 370 MiB (83%) \r\nDefault : Yes \r\nForced : No \r\n\r\nAudio \r\nID : 2 \r\nFormat : AAC \r\nFormat/Info : Advanced Audio Codec \r\nFormat profile : HE-AAC / LC \r\nCodec ID : A_AAC \r\nDuration : 54mn 31s \r\nBit rate : 192 Kbps \r\nChannel(s) : 6 channels \r\nChannel positions : Front: L C R, Side: L R, LFE \r\nSampling rate : 48.0 KHz / 24.0 KHz \r\nFrame rate : 23.438 fps (1024 spf) \r\nCompression mode : Lossy \r\nDelay relative to video : 31ms \r\nStream size : 73.9 MiB (17%) \r\nLanguage : English \r\nDefault : Yes \r\nForced : No",
  "parsed": {
    "xt": "urn:btih:0fd638aafe5a70e80522ada7f423ae9f8b76fbbc",
    "dn": "Shameless US S05 Season 5 720p 5.1Ch BluRay ReEnc-DeeJayAhmed",
    "tr": [
      "udp://exodus.desync.com:6969",
      "udp://open.demonii.com:1337",
      "udp://tracker.coppersurfer.tk:6969",
      "udp://tracker.leechers-paradise.org:6969",
      "udp://zer0day.ch:1337"
    ],
    "infoHash": "0fd638aafe5a70e80522ada7f423ae9f8b76fbbc",
    "infoHashBuffer": {
      "type": "Buffer",
      "data": [
        15,
        214,
        56,
        170,
        254,
        90,
        112,
        232,
        5,
        34,
        173,
        167,
        244,
        35,
        174,
        159,
        139,
        118,
        251,
        188
      ]
    },
    "name": "Shameless US S05 Season 5 720p 5.1Ch BluRay ReEnc-DeeJayAhmed",
    "announce": [
      "udp://exodus.desync.com:6969",
      "udp://open.demonii.com:1337",
      "udp://tracker.coppersurfer.tk:6969",
      "udp://tracker.leechers-paradise.org:6969",
      "udp://zer0day.ch:1337"
    ],
    "urlList": []
  },
  "previous": 204,
  "peers": 0,
  "last_updated": "2016-12-24T17:15:54.888Z"
}